# xmcd
#
# Track frame offsets:
#	150
#	12760
#	23785
#	35837
#	49779
#	62052
#	74758
#	84960
#	93687
#
# Disc length: 1393 seconds
#
# Revision: 1
# Processed by: cddbd v1.5.2PL0 Copyright (c) Steve Scherf et al.
# Submitted via: audiograbber 1.83.01
#
DISCID=76056f09
DTITLE=Dolly Parton and Porter Wagoner - Say Forever You'll Be Mine
DYEAR=1975
DGENRE=Country
TTITLE0=Say Forever You'll Be Mine
TTITLE1=Something To Reach For
TTITLE2=Our Love
TTITLE3=The Beginning
TTITLE4=I Have No Right To Care
TTITLE5=If You Were Mine
TTITLE6=Love To See Us Through
TTITLE7=How Can I Help You Forgive Me
TTITLE8=Life Rides The Train
EXTD=
EXTT0=
EXTT1=
EXTT2=
EXTT3=
EXTT4=
EXTT5=
EXTT6=
EXTT7=
EXTT8=
PLAYORDER=
